<svg width="1281" height="323" viewBox="0 0 1281 323" fill="none" xmlns="http://www.w3.org/2000/svg">
<rect width="1280.5" height="322.5" fill="url(#paint0_linear_310_274)"/>
<path d="M108.276 219.952H110.67V232.408H108.276V219.952ZM109.986 225.028H112.884V226.99H109.986V225.028ZM97.5481 221.68H107.358V223.552H97.5481V221.68ZM102.462 224.146C104.856 224.146 106.548 225.46 106.548 227.368C106.548 229.276 104.856 230.572 102.462 230.572C100.05 230.572 98.3581 229.276 98.3581 227.368C98.3581 225.46 100.05 224.146 102.462 224.146ZM102.462 225.964C101.4 225.964 100.662 226.468 100.662 227.368C100.662 228.268 101.4 228.754 102.462 228.754C103.524 228.754 104.262 228.268 104.262 227.368C104.262 226.468 103.524 225.964 102.462 225.964ZM101.256 219.916H103.65V222.598H101.256V219.916ZM99.9241 234.406H111.264V236.314H99.9241V234.406ZM99.9241 231.472H102.318V235.234H99.9241V231.472ZM115.961 220.636H126.527V222.544H115.961V220.636ZM114.125 226.396H129.209V228.304H114.125V226.396ZM120.443 227.746H122.837V231.238H120.443V227.746ZM125.087 220.636H127.445V221.968C127.445 223.408 127.445 225.082 126.923 227.278L124.565 227.044C125.087 224.902 125.087 223.372 125.087 221.968V220.636ZM115.637 230.644H127.463V236.602H125.069V232.534H115.637V230.644ZM142.095 219.934H144.507V236.656H142.095V219.934ZM131.673 230.68H133.113C136.623 230.68 138.603 230.608 140.835 230.194L141.051 232.156C138.801 232.606 136.695 232.678 133.113 232.678H131.673V230.68ZM131.673 221.41H139.719V223.336H134.049V231.436H131.673V221.41ZM151.238 222.562H153.146V224.434C153.146 228.286 151.58 232.048 148.448 233.47L147.098 231.58C149.888 230.338 151.238 227.26 151.238 224.434V222.562ZM151.778 222.562H153.668V224.434C153.668 227.134 155 230.014 157.79 231.166L156.494 233.056C153.326 231.688 151.778 228.142 151.778 224.434V222.562ZM147.764 221.536H157.106V223.498H147.764V221.536ZM158.654 219.934H161.066V236.602H158.654V219.934ZM164.557 226.558H165.853C168.859 226.558 170.677 226.54 172.801 226.234L172.98 228.088C170.803 228.412 168.931 228.43 165.853 228.43H164.557V226.558ZM164.557 220.852H172.243V222.706H166.933V227.782H164.557V220.852ZM166.339 223.714H171.739V225.478H166.339V223.714ZM172.711 223.462H175.789V225.334H172.711V223.462ZM175.339 219.934H177.733V228.754H175.339V219.934ZM166.717 229.366H177.733V233.758H169.111V235.846H166.735V232.048H175.357V231.184H166.717V229.366ZM166.735 234.676H178.201V236.494H166.735V234.676ZM182.051 220.564H192.599V222.472H182.051V220.564ZM191.321 220.564H193.697V222.148C193.697 223.786 193.697 225.442 193.229 227.638L190.871 227.458C191.321 225.334 191.321 223.768 191.321 222.148V220.564ZM192.059 223.66V225.406L181.889 225.838L181.601 223.876L192.059 223.66ZM180.377 228.466H195.389V230.356H180.377V228.466ZM185.939 226.432H188.333V229.672H185.939V226.432ZM182.123 234.442H193.967V236.35H182.123V234.442ZM182.123 231.4H184.517V235.306H182.123V231.4ZM203.938 224.488H206.476V226.378H203.938V224.488ZM208.834 219.934H211.102V232.39H208.834V219.934ZM205.576 220.24H207.808V232.012H205.576V220.24ZM200.014 234.406H211.534V236.314H200.014V234.406ZM200.014 231.076H202.408V235.702H200.014V231.076ZM197.548 228.178H198.682C201.058 228.178 202.588 228.142 204.406 227.836L204.622 229.69C202.732 230.032 201.148 230.068 198.682 230.068H197.548V228.178ZM197.548 221.212H203.83V223.12H199.852V228.808H197.548V221.212ZM199.168 224.704H203.218V226.522H199.168V224.704ZM213.476 232.75H228.56V234.694H213.476V232.75ZM219.794 223.462H221.918V223.822C221.918 227.152 219.398 229.906 214.862 230.59L213.962 228.664C217.958 228.124 219.794 225.874 219.794 223.822V223.462ZM220.118 223.462H222.224V223.822C222.224 225.874 224.06 228.124 228.056 228.664L227.156 230.59C222.62 229.906 220.118 227.152 220.118 223.822V223.462ZM214.754 222.22H227.264V224.146H214.754V222.22ZM219.812 220.186H222.206V223.012H219.812V220.186ZM230.017 221.392H239.827V223.282H230.017V221.392ZM234.931 223.804C237.325 223.804 239.017 225.046 239.017 226.882C239.017 228.718 237.325 229.942 234.931 229.942C232.519 229.942 230.827 228.718 230.827 226.882C230.827 225.046 232.519 223.804 234.931 223.804ZM234.931 225.604C233.851 225.604 233.131 226.036 233.131 226.882C233.131 227.71 233.851 228.142 234.931 228.142C235.993 228.142 236.731 227.71 236.731 226.882C236.731 226.036 235.993 225.604 234.931 225.604ZM240.745 219.934H243.139V230.392H240.745V219.934ZM242.473 224.236H245.353V226.18H242.473V224.236ZM232.015 231.076H243.139V236.602H240.745V232.984H232.015V231.076ZM233.725 219.844H236.119V222.472H233.725V219.844ZM250.805 230.068H253.199V232.768H250.805V230.068ZM258.095 219.934H260.489V236.602H258.095V219.934ZM246.953 233.83L246.665 231.904C249.689 231.886 253.721 231.886 257.231 231.418L257.393 233.146C253.775 233.812 249.905 233.83 246.953 233.83ZM246.989 221.77H257.015V223.642H246.989V221.77ZM251.993 224.308C254.459 224.308 256.169 225.568 256.169 227.422C256.169 229.294 254.459 230.554 251.993 230.554C249.563 230.554 247.853 229.294 247.853 227.422C247.853 225.568 249.563 224.308 251.993 224.308ZM251.993 226.108C250.913 226.108 250.139 226.576 250.139 227.422C250.139 228.286 250.913 228.754 251.993 228.754C253.109 228.754 253.883 228.286 253.883 227.422C253.883 226.576 253.109 226.108 251.993 226.108ZM250.805 220.006H253.199V222.85H250.805V220.006Z" fill="white"/>
<path d="M425.548 231.16H440.632V233.068H425.548V231.16ZM432.082 232.366H434.494V235.876H432.082V232.366ZM427.402 223.636H438.724V229.828H427.402V223.636ZM436.366 225.508H429.742V227.956H436.366V225.508ZM427.294 237.406H438.976V239.314H427.294V237.406ZM427.294 234.472H429.67V238.036H427.294V234.472ZM447.471 224.032C450.099 224.032 452.061 225.742 452.061 228.136C452.061 230.548 450.099 232.258 447.471 232.258C444.861 232.258 442.863 230.548 442.863 228.136C442.863 225.742 444.861 224.032 447.471 224.032ZM447.471 226.084C446.193 226.084 445.221 226.84 445.221 228.136C445.221 229.45 446.193 230.206 447.471 230.206C448.749 230.206 449.721 229.45 449.721 228.136C449.721 226.84 448.749 226.084 447.471 226.084ZM453.627 222.916H456.021V239.638H453.627V222.916ZM442.467 236.254L442.179 234.328C445.113 234.328 449.199 234.292 452.709 233.77L452.889 235.498C449.271 236.218 445.347 236.254 442.467 236.254Z" fill="white"/>
<path d="M677.016 221.644H683.604V232.444H677.016V221.644ZM681.372 223.516H679.248V230.572H681.372V223.516ZM688.59 219.934H690.876V236.602H688.59V219.934ZM682.398 225.982H686.142V227.908H682.398V225.982ZM685.188 220.186H687.438V235.846H685.188V220.186ZM697.805 220.42C700.343 220.42 702.251 222.004 702.251 224.236C702.251 226.45 700.343 228.034 697.805 228.034C695.267 228.034 693.359 226.45 693.359 224.236C693.359 222.004 695.267 220.42 697.805 220.42ZM697.805 222.364C696.581 222.364 695.663 223.048 695.663 224.236C695.663 225.424 696.581 226.108 697.805 226.108C699.029 226.108 699.929 225.424 699.929 224.236C699.929 223.048 699.029 222.364 697.805 222.364ZM704.555 219.934H706.967V228.268H704.555V219.934ZM695.843 228.952H706.967V233.524H698.219V235.54H695.879V231.796H704.591V230.806H695.843V228.952ZM695.879 234.568H707.381V236.422H695.879V234.568Z" fill="white"/>
<path d="M927.476 224.236H931.364V226.162H927.476V224.236ZM930.104 219.952H932.498V232.102H930.104V219.952ZM921.5 234.406H932.876V236.314H921.5V234.406ZM921.5 231.076H923.894V235.54H921.5V231.076ZM922.4 222.13H924.344V223.174C924.344 226.306 922.868 229.204 919.664 230.266L918.458 228.358C921.212 227.458 922.4 225.28 922.4 223.174V222.13ZM922.904 222.13H924.83V223.174C924.83 225.118 925.964 227.188 928.592 228.07L927.422 229.942C924.326 228.916 922.904 226.144 922.904 223.174V222.13ZM919.106 221.068H928.07V222.958H919.106V221.068ZM938.959 229.798H941.353V232.498H938.959V229.798ZM945.961 219.934H948.373V236.602H945.961V219.934ZM947.527 226.702H950.461V228.682H947.527V226.702ZM935.215 233.83L934.927 231.904C937.807 231.904 941.767 231.886 945.133 231.418L945.313 233.146C941.803 233.83 938.023 233.83 935.215 233.83ZM935.233 221.77H945.043V223.642H935.233V221.77ZM940.165 224.308C942.541 224.308 944.233 225.568 944.233 227.422C944.233 229.294 942.541 230.554 940.165 230.554C937.771 230.554 936.097 229.294 936.097 227.422C936.097 225.568 937.771 224.308 940.165 224.308ZM940.165 226.108C939.067 226.108 938.365 226.576 938.365 227.422C938.365 228.286 939.067 228.754 940.165 228.754C941.245 228.754 941.965 228.286 941.965 227.422C941.965 226.576 941.245 226.108 940.165 226.108ZM938.959 220.024H941.353V223.174H938.959V220.024Z" fill="white"/>
<rect x="478.828" y="217" width="161" height="27" fill="#D9D9D9"/>
<rect x="729.828" y="217" width="161" height="27" fill="#D9D9D9"/>
<rect x="971.828" y="217" width="161" height="27" fill="#D9D9D9"/>
<defs>
<linearGradient id="paint0_linear_310_274" x1="797.754" y1="-28.2465" x2="778.003" y2="393.663" gradientUnits="userSpaceOnUse">
<stop stop-opacity="0"/>
<stop offset="1" stop-color="#25F4EE"/>
</linearGradient>
</defs>
</svg>
