<svg width="1281" height="377" viewBox="0 0 1281 377" fill="none" xmlns="http://www.w3.org/2000/svg">
<rect width="1280.5" height="376.018" fill="url(#paint0_linear_718_192)"/>
<path d="M201.448 250.952H203.842V263.408H201.448V250.952ZM203.158 256.028H206.056V257.99H203.158V256.028ZM190.72 252.68H200.53V254.552H190.72V252.68ZM195.634 255.146C198.028 255.146 199.72 256.46 199.72 258.368C199.72 260.276 198.028 261.572 195.634 261.572C193.222 261.572 191.53 260.276 191.53 258.368C191.53 256.46 193.222 255.146 195.634 255.146ZM195.634 256.964C194.572 256.964 193.834 257.468 193.834 258.368C193.834 259.268 194.572 259.754 195.634 259.754C196.696 259.754 197.434 259.268 197.434 258.368C197.434 257.468 196.696 256.964 195.634 256.964ZM194.428 250.916H196.822V253.598H194.428V250.916ZM193.096 265.406H204.436V267.314H193.096V265.406ZM193.096 262.472H195.49V266.234H193.096V262.472ZM209.133 251.636H219.699V253.544H209.133V251.636ZM207.297 257.396H222.381V259.304H207.297V257.396ZM213.615 258.746H216.009V262.238H213.615V258.746ZM218.259 251.636H220.617V252.968C220.617 254.408 220.617 256.082 220.095 258.278L217.737 258.044C218.259 255.902 218.259 254.372 218.259 252.968V251.636ZM208.809 261.644H220.635V267.602H218.241V263.534H208.809V261.644ZM235.267 250.934H237.679V267.656H235.267V250.934ZM224.845 261.68H226.285C229.795 261.68 231.775 261.608 234.007 261.194L234.223 263.156C231.973 263.606 229.867 263.678 226.285 263.678H224.845V261.68ZM224.845 252.41H232.891V254.336H227.221V262.436H224.845V252.41ZM244.41 253.562H246.318V255.434C246.318 259.286 244.752 263.048 241.62 264.47L240.27 262.58C243.06 261.338 244.41 258.26 244.41 255.434V253.562ZM244.95 253.562H246.84V255.434C246.84 258.134 248.172 261.014 250.962 262.166L249.666 264.056C246.498 262.688 244.95 259.142 244.95 255.434V253.562ZM240.936 252.536H250.278V254.498H240.936V252.536ZM251.826 250.934H254.238V267.602H251.826V250.934ZM257.728 257.558H259.024C262.03 257.558 263.848 257.54 265.972 257.234L266.152 259.088C263.974 259.412 262.102 259.43 259.024 259.43H257.728V257.558ZM257.728 251.852H265.414V253.706H260.104V258.782H257.728V251.852ZM259.51 254.714H264.91V256.478H259.51V254.714ZM265.882 254.462H268.96V256.334H265.882V254.462ZM268.51 250.934H270.904V259.754H268.51V250.934ZM259.888 260.366H270.904V264.758H262.282V266.846H259.906V263.048H268.528V262.184H259.888V260.366ZM259.906 265.676H271.372V267.494H259.906V265.676ZM275.223 251.564H285.771V253.472H275.223V251.564ZM284.493 251.564H286.869V253.148C286.869 254.786 286.869 256.442 286.401 258.638L284.043 258.458C284.493 256.334 284.493 254.768 284.493 253.148V251.564ZM285.231 254.66V256.406L275.061 256.838L274.773 254.876L285.231 254.66ZM273.549 259.466H288.561V261.356H273.549V259.466ZM279.111 257.432H281.505V260.672H279.111V257.432ZM275.295 265.442H287.139V267.35H275.295V265.442ZM275.295 262.4H277.689V266.306H275.295V262.4ZM297.11 255.488H299.648V257.378H297.11V255.488ZM302.006 250.934H304.274V263.39H302.006V250.934ZM298.748 251.24H300.98V263.012H298.748V251.24ZM293.186 265.406H304.706V267.314H293.186V265.406ZM293.186 262.076H295.58V266.702H293.186V262.076ZM290.72 259.178H291.854C294.23 259.178 295.76 259.142 297.578 258.836L297.794 260.69C295.904 261.032 294.32 261.068 291.854 261.068H290.72V259.178ZM290.72 252.212H297.002V254.12H293.024V259.808H290.72V252.212ZM292.34 255.704H296.39V257.522H292.34V255.704ZM306.648 263.75H321.732V265.694H306.648V263.75ZM312.966 254.462H315.09V254.822C315.09 258.152 312.57 260.906 308.034 261.59L307.134 259.664C311.13 259.124 312.966 256.874 312.966 254.822V254.462ZM313.29 254.462H315.396V254.822C315.396 256.874 317.232 259.124 321.228 259.664L320.328 261.59C315.792 260.906 313.29 258.152 313.29 254.822V254.462ZM307.926 253.22H320.436V255.146H307.926V253.22ZM312.984 251.186H315.378V254.012H312.984V251.186ZM323.189 252.392H332.999V254.282H323.189V252.392ZM328.103 254.804C330.497 254.804 332.189 256.046 332.189 257.882C332.189 259.718 330.497 260.942 328.103 260.942C325.691 260.942 323.999 259.718 323.999 257.882C323.999 256.046 325.691 254.804 328.103 254.804ZM328.103 256.604C327.023 256.604 326.303 257.036 326.303 257.882C326.303 258.71 327.023 259.142 328.103 259.142C329.165 259.142 329.903 258.71 329.903 257.882C329.903 257.036 329.165 256.604 328.103 256.604ZM333.917 250.934H336.311V261.392H333.917V250.934ZM335.645 255.236H338.525V257.18H335.645V255.236ZM325.187 262.076H336.311V267.602H333.917V263.984H325.187V262.076ZM326.897 250.844H329.291V253.472H326.897V250.844ZM343.977 261.068H346.371V263.768H343.977V261.068ZM351.267 250.934H353.661V267.602H351.267V250.934ZM340.125 264.83L339.837 262.904C342.861 262.886 346.893 262.886 350.403 262.418L350.565 264.146C346.947 264.812 343.077 264.83 340.125 264.83ZM340.161 252.77H350.187V254.642H340.161V252.77ZM345.165 255.308C347.631 255.308 349.341 256.568 349.341 258.422C349.341 260.294 347.631 261.554 345.165 261.554C342.735 261.554 341.025 260.294 341.025 258.422C341.025 256.568 342.735 255.308 345.165 255.308ZM345.165 257.108C344.085 257.108 343.311 257.576 343.311 258.422C343.311 259.286 344.085 259.754 345.165 259.754C346.281 259.754 347.055 259.286 347.055 258.422C347.055 257.576 346.281 257.108 345.165 257.108ZM343.977 251.006H346.371V253.85H343.977V251.006Z" fill="white"/>
<path d="M973.716 243.897V241.909H984.161V243.897H980.114V255H977.762V243.897H973.716ZM986.882 255.141C986.494 255.141 986.162 255.004 985.885 254.732C985.608 254.459 985.471 254.126 985.476 253.734C985.471 253.351 985.608 253.023 985.885 252.75C986.162 252.477 986.494 252.341 986.882 252.341C987.257 252.341 987.583 252.477 987.86 252.75C988.141 253.023 988.284 253.351 988.288 253.734C988.284 253.994 988.216 254.231 988.084 254.444C987.956 254.657 987.785 254.827 987.572 254.955C987.363 255.079 987.133 255.141 986.882 255.141ZM994.981 255.249C993.928 255.249 993.025 254.983 992.27 254.45C991.52 253.913 990.943 253.14 990.538 252.13C990.138 251.116 989.937 249.895 989.937 248.467C989.942 247.04 990.144 245.825 990.545 244.824C990.949 243.818 991.527 243.051 992.277 242.523C993.031 241.994 993.932 241.73 994.981 241.73C996.029 241.73 996.93 241.994 997.684 242.523C998.439 243.051 999.016 243.818 999.417 244.824C999.822 245.83 1000.02 247.044 1000.02 248.467C1000.02 249.899 999.822 251.122 999.417 252.136C999.016 253.146 998.439 253.918 997.684 254.45C996.934 254.983 996.033 255.249 994.981 255.249ZM994.981 253.249C995.799 253.249 996.444 252.846 996.917 252.04C997.395 251.231 997.633 250.04 997.633 248.467C997.633 247.428 997.525 246.554 997.307 245.847C997.09 245.139 996.783 244.607 996.387 244.249C995.991 243.886 995.522 243.705 994.981 243.705C994.167 243.705 993.523 244.11 993.05 244.92C992.577 245.725 992.339 246.908 992.334 248.467C992.33 249.511 992.434 250.389 992.648 251.101C992.865 251.812 993.172 252.349 993.568 252.712C993.964 253.07 994.435 253.249 994.981 253.249ZM1001.91 252.571V250.685L1007.47 241.909H1009.04V244.594H1008.08L1004.34 250.519V250.621H1012.09V252.571H1001.91ZM1008.16 255V251.996L1008.18 251.152V241.909H1010.42V255H1008.16ZM1014.14 255V253.287L1018.68 248.832C1019.12 248.393 1019.48 248.003 1019.77 247.662C1020.06 247.321 1020.27 246.991 1020.42 246.671C1020.56 246.352 1020.64 246.011 1020.64 245.648C1020.64 245.235 1020.54 244.881 1020.36 244.587C1020.17 244.289 1019.91 244.059 1019.58 243.897C1019.25 243.735 1018.88 243.654 1018.46 243.654C1018.03 243.654 1017.66 243.744 1017.33 243.923C1017.01 244.097 1016.76 244.347 1016.58 244.67C1016.4 244.994 1016.32 245.38 1016.32 245.827H1014.06C1014.06 244.996 1014.25 244.274 1014.63 243.661C1015.01 243.047 1015.53 242.572 1016.19 242.235C1016.86 241.898 1017.63 241.73 1018.5 241.73C1019.37 241.73 1020.14 241.894 1020.81 242.222C1021.47 242.55 1021.99 243 1022.36 243.571C1022.73 244.142 1022.91 244.794 1022.91 245.527C1022.91 246.017 1022.82 246.499 1022.63 246.972C1022.44 247.445 1022.11 247.969 1021.64 248.544C1021.17 249.119 1020.51 249.816 1019.67 250.634L1017.41 252.929V253.018H1023.11V255H1014.14ZM1031.29 247.502V249.407H1025.4V247.502H1031.29ZM1033.46 252.571V250.685L1039.02 241.909H1040.59V244.594H1039.63L1035.89 250.519V250.621H1043.65V252.571H1033.46ZM1039.71 255V251.996L1039.73 251.152V241.909H1041.97V255H1039.71ZM1050.34 255.179C1049.39 255.179 1048.55 255.019 1047.81 254.7C1047.08 254.38 1046.5 253.943 1046.09 253.389C1045.67 252.831 1045.47 252.198 1045.47 251.491C1045.47 250.941 1045.59 250.436 1045.83 249.976C1046.07 249.516 1046.4 249.132 1046.81 248.825C1047.23 248.514 1047.7 248.316 1048.21 248.231V248.141C1047.53 247.992 1046.99 247.649 1046.57 247.112C1046.16 246.571 1045.95 245.947 1045.96 245.239C1045.95 244.566 1046.14 243.965 1046.52 243.437C1046.9 242.908 1047.42 242.493 1048.08 242.19C1048.74 241.884 1049.49 241.73 1050.34 241.73C1051.18 241.73 1051.93 241.884 1052.59 242.19C1053.25 242.493 1053.77 242.908 1054.15 243.437C1054.53 243.965 1054.72 244.566 1054.72 245.239C1054.72 245.947 1054.51 246.571 1054.09 247.112C1053.67 247.649 1053.13 247.992 1052.47 248.141V248.231C1052.98 248.316 1053.44 248.514 1053.85 248.825C1054.26 249.132 1054.59 249.516 1054.84 249.976C1055.08 250.436 1055.21 250.941 1055.21 251.491C1055.21 252.198 1055 252.831 1054.58 253.389C1054.16 253.943 1053.59 254.38 1052.85 254.7C1052.13 255.019 1051.29 255.179 1050.34 255.179ZM1050.34 253.351C1050.83 253.351 1051.26 253.268 1051.62 253.102C1051.98 252.931 1052.26 252.692 1052.46 252.386C1052.66 252.079 1052.77 251.725 1052.77 251.325C1052.77 250.907 1052.66 250.538 1052.45 250.219C1052.24 249.895 1051.95 249.641 1051.58 249.458C1051.22 249.275 1050.81 249.183 1050.34 249.183C1049.87 249.183 1049.46 249.275 1049.09 249.458C1048.72 249.641 1048.43 249.895 1048.22 250.219C1048.01 250.538 1047.91 250.907 1047.91 251.325C1047.91 251.725 1048.01 252.079 1048.21 252.386C1048.41 252.688 1048.69 252.925 1049.05 253.095C1049.42 253.266 1049.85 253.351 1050.34 253.351ZM1050.34 247.387C1050.74 247.387 1051.1 247.306 1051.4 247.144C1051.71 246.982 1051.96 246.756 1052.14 246.467C1052.32 246.177 1052.41 245.842 1052.41 245.463C1052.41 245.088 1052.32 244.76 1052.14 244.479C1051.97 244.193 1051.73 243.974 1051.42 243.82C1051.1 243.663 1050.75 243.584 1050.34 243.584C1049.93 243.584 1049.56 243.663 1049.25 243.82C1048.94 243.974 1048.7 244.193 1048.52 244.479C1048.35 244.76 1048.27 245.088 1048.27 245.463C1048.27 245.842 1048.35 246.177 1048.53 246.467C1048.71 246.752 1048.95 246.978 1049.26 247.144C1049.58 247.306 1049.94 247.387 1050.34 247.387ZM1057.07 252.571V250.685L1062.63 241.909H1064.2V244.594H1063.24L1059.5 250.519V250.621H1067.25V252.571H1057.07ZM1063.32 255V251.996L1063.34 251.152V241.909H1065.58V255H1063.32ZM1075.27 247.502V249.407H1069.38V247.502H1075.27ZM1082.26 255.179C1081.34 255.179 1080.52 255.021 1079.8 254.706C1079.09 254.391 1078.53 253.952 1078.11 253.389C1077.7 252.827 1077.48 252.177 1077.46 251.44H1079.86C1079.88 251.793 1080 252.102 1080.21 252.366C1080.42 252.626 1080.71 252.829 1081.06 252.974C1081.41 253.119 1081.81 253.191 1082.25 253.191C1082.72 253.191 1083.13 253.11 1083.5 252.948C1083.86 252.782 1084.14 252.552 1084.35 252.258C1084.55 251.964 1084.65 251.625 1084.65 251.241C1084.65 250.845 1084.55 250.496 1084.34 250.193C1084.13 249.891 1083.83 249.654 1083.43 249.484C1083.04 249.313 1082.57 249.228 1082.01 249.228H1080.86V247.4H1082.01C1082.47 247.4 1082.87 247.321 1083.21 247.163C1083.55 247.006 1083.82 246.784 1084.02 246.499C1084.22 246.209 1084.31 245.874 1084.31 245.495C1084.31 245.124 1084.23 244.803 1084.06 244.53C1083.89 244.253 1083.66 244.038 1083.35 243.884C1083.05 243.731 1082.69 243.654 1082.28 243.654C1081.88 243.654 1081.51 243.727 1081.17 243.871C1080.83 244.016 1080.55 244.223 1080.34 244.491C1080.14 244.756 1080.03 245.071 1080.01 245.438H1077.73C1077.75 244.705 1077.96 244.061 1078.36 243.507C1078.77 242.949 1079.32 242.514 1080 242.203C1080.68 241.888 1081.45 241.73 1082.29 241.73C1083.17 241.73 1083.93 241.894 1084.57 242.222C1085.22 242.546 1085.72 242.983 1086.07 243.533C1086.43 244.082 1086.6 244.69 1086.6 245.354C1086.61 246.092 1086.39 246.71 1085.95 247.208C1085.52 247.707 1084.94 248.033 1084.24 248.186V248.288C1085.16 248.416 1085.86 248.757 1086.35 249.311C1086.85 249.861 1087.09 250.545 1087.09 251.363C1087.09 252.096 1086.88 252.752 1086.46 253.332C1086.05 253.907 1085.48 254.359 1084.75 254.687C1084.02 255.015 1083.19 255.179 1082.26 255.179ZM1089.28 255V253.287L1093.83 248.832C1094.26 248.393 1094.62 248.003 1094.91 247.662C1095.2 247.321 1095.42 246.991 1095.57 246.671C1095.71 246.352 1095.78 246.011 1095.78 245.648C1095.78 245.235 1095.69 244.881 1095.5 244.587C1095.31 244.289 1095.06 244.059 1094.73 243.897C1094.4 243.735 1094.03 243.654 1093.61 243.654C1093.18 243.654 1092.8 243.744 1092.48 243.923C1092.15 244.097 1091.9 244.347 1091.72 244.67C1091.55 244.994 1091.46 245.38 1091.46 245.827H1089.21C1089.21 244.996 1089.4 244.274 1089.77 243.661C1090.15 243.047 1090.68 242.572 1091.34 242.235C1092.01 241.898 1092.78 241.73 1093.64 241.73C1094.52 241.73 1095.29 241.894 1095.96 242.222C1096.62 242.55 1097.14 243 1097.5 243.571C1097.87 244.142 1098.06 244.794 1098.06 245.527C1098.06 246.017 1097.97 246.499 1097.78 246.972C1097.59 247.445 1097.26 247.969 1096.79 248.544C1096.32 249.119 1095.66 249.816 1094.81 250.634L1092.56 252.929V253.018H1098.26V255H1089.28ZM1105.16 255.179C1104.24 255.179 1103.42 255.021 1102.71 254.706C1101.99 254.391 1101.43 253.952 1101.02 253.389C1100.6 252.827 1100.39 252.177 1100.36 251.44H1102.76C1102.78 251.793 1102.9 252.102 1103.11 252.366C1103.33 252.626 1103.61 252.829 1103.97 252.974C1104.32 253.119 1104.72 253.191 1105.15 253.191C1105.62 253.191 1106.04 253.11 1106.4 252.948C1106.76 252.782 1107.05 252.552 1107.25 252.258C1107.46 251.964 1107.56 251.625 1107.55 251.241C1107.56 250.845 1107.45 250.496 1107.24 250.193C1107.04 249.891 1106.73 249.654 1106.34 249.484C1105.94 249.313 1105.47 249.228 1104.92 249.228H1103.76V247.4H1104.92C1105.37 247.4 1105.77 247.321 1106.11 247.163C1106.46 247.006 1106.73 246.784 1106.92 246.499C1107.12 246.209 1107.22 245.874 1107.21 245.495C1107.22 245.124 1107.13 244.803 1106.96 244.53C1106.8 244.253 1106.56 244.038 1106.25 243.884C1105.95 243.731 1105.59 243.654 1105.19 243.654C1104.79 243.654 1104.41 243.727 1104.07 243.871C1103.73 244.016 1103.46 244.223 1103.25 244.491C1103.04 244.756 1102.93 245.071 1102.92 245.438H1100.63C1100.65 244.705 1100.86 244.061 1101.27 243.507C1101.68 242.949 1102.22 242.514 1102.9 242.203C1103.59 241.888 1104.35 241.73 1105.2 241.73C1106.07 241.73 1106.83 241.894 1107.47 242.222C1108.12 242.546 1108.62 242.983 1108.98 243.533C1109.33 244.082 1109.51 244.69 1109.51 245.354C1109.51 246.092 1109.29 246.71 1108.85 247.208C1108.42 247.707 1107.85 248.033 1107.14 248.186V248.288C1108.06 248.416 1108.77 248.757 1109.26 249.311C1109.75 249.861 1110 250.545 1109.99 251.363C1109.99 252.096 1109.78 252.752 1109.37 253.332C1108.95 253.907 1108.38 254.359 1107.65 254.687C1106.93 255.015 1106.1 255.179 1105.16 255.179ZM1112.19 255V253.287L1116.73 248.832C1117.17 248.393 1117.53 248.003 1117.82 247.662C1118.11 247.321 1118.33 246.991 1118.47 246.671C1118.62 246.352 1118.69 246.011 1118.69 245.648C1118.69 245.235 1118.59 244.881 1118.41 244.587C1118.22 244.289 1117.96 244.059 1117.63 243.897C1117.3 243.735 1116.93 243.654 1116.51 243.654C1116.08 243.654 1115.71 243.744 1115.38 243.923C1115.06 244.097 1114.81 244.347 1114.63 244.67C1114.45 244.994 1114.37 245.38 1114.37 245.827H1112.11C1112.11 244.996 1112.3 244.274 1112.68 243.661C1113.06 243.047 1113.58 242.572 1114.25 242.235C1114.91 241.898 1115.68 241.73 1116.55 241.73C1117.42 241.73 1118.2 241.894 1118.86 242.222C1119.52 242.55 1120.04 243 1120.41 243.571C1120.78 244.142 1120.96 244.794 1120.96 245.527C1120.96 246.017 1120.87 246.499 1120.68 246.972C1120.49 247.445 1120.16 247.969 1119.69 248.544C1119.22 249.119 1118.56 249.816 1117.72 250.634L1115.46 252.929V253.018H1121.16V255H1112.19Z" fill="white"/>
<path d="M604.832 262.173C604.061 262.173 603.371 261.974 602.761 261.578C602.152 261.182 601.67 260.607 601.317 259.852C600.963 259.098 600.786 258.182 600.786 257.104C600.786 256.013 600.965 255.092 601.323 254.342C601.685 253.588 602.173 253.019 602.787 252.636C603.401 252.248 604.085 252.054 604.839 252.054C605.414 252.054 605.887 252.152 606.258 252.348C606.629 252.54 606.923 252.772 607.14 253.045C607.357 253.313 607.526 253.567 607.645 253.805H607.741V248.909H610.061V262H607.786V260.453H607.645C607.526 260.692 607.353 260.945 607.127 261.214C606.901 261.478 606.603 261.704 606.232 261.891C605.862 262.079 605.395 262.173 604.832 262.173ZM605.478 260.274C605.968 260.274 606.386 260.142 606.731 259.878C607.076 259.609 607.338 259.237 607.517 258.759C607.696 258.282 607.786 257.726 607.786 257.091C607.786 256.456 607.696 255.904 607.517 255.435C607.342 254.967 607.082 254.602 606.737 254.342C606.396 254.082 605.977 253.952 605.478 253.952C604.962 253.952 604.532 254.087 604.187 254.355C603.842 254.624 603.582 254.994 603.407 255.467C603.232 255.94 603.145 256.482 603.145 257.091C603.145 257.705 603.232 258.252 603.407 258.734C603.586 259.211 603.848 259.588 604.193 259.865C604.543 260.138 604.971 260.274 605.478 260.274ZM616.809 262.192C615.829 262.192 614.988 261.977 614.285 261.546C613.586 261.116 613.047 260.521 612.667 259.763C612.292 259 612.105 258.122 612.105 257.129C612.105 256.132 612.297 255.252 612.68 254.489C613.064 253.722 613.605 253.126 614.304 252.7C615.007 252.269 615.838 252.054 616.797 252.054C617.594 252.054 618.299 252.201 618.912 252.495C619.53 252.785 620.023 253.196 620.389 253.729C620.756 254.257 620.964 254.875 621.015 255.582H618.804C618.714 255.109 618.501 254.715 618.165 254.4C617.832 254.08 617.387 253.92 616.829 253.92C616.356 253.92 615.94 254.048 615.582 254.304C615.224 254.555 614.945 254.918 614.745 255.391C614.549 255.864 614.451 256.43 614.451 257.091C614.451 257.76 614.549 258.335 614.745 258.817C614.941 259.294 615.216 259.663 615.569 259.923C615.927 260.178 616.347 260.306 616.829 260.306C617.17 260.306 617.474 260.242 617.743 260.114C618.015 259.982 618.243 259.793 618.427 259.545C618.61 259.298 618.736 258.998 618.804 258.644H621.015C620.96 259.339 620.756 259.955 620.402 260.491C620.048 261.024 619.567 261.442 618.957 261.744C618.348 262.043 617.632 262.192 616.809 262.192ZM630.675 254.777L628.566 255.007C628.506 254.794 628.402 254.594 628.253 254.406C628.108 254.219 627.912 254.067 627.665 253.952C627.418 253.837 627.115 253.78 626.757 253.78C626.276 253.78 625.871 253.884 625.543 254.093C625.219 254.302 625.059 254.572 625.063 254.905C625.059 255.19 625.163 255.423 625.376 255.602C625.594 255.781 625.952 255.928 626.45 256.043L628.125 256.401C629.054 256.601 629.744 256.918 630.196 257.353C630.652 257.788 630.882 258.357 630.886 259.06C630.882 259.678 630.701 260.223 630.343 260.696C629.989 261.165 629.497 261.531 628.866 261.795C628.236 262.06 627.511 262.192 626.693 262.192C625.491 262.192 624.524 261.94 623.791 261.438C623.058 260.93 622.621 260.225 622.481 259.322L624.737 259.104C624.839 259.548 625.057 259.882 625.389 260.108C625.722 260.334 626.154 260.447 626.687 260.447C627.237 260.447 627.678 260.334 628.01 260.108C628.347 259.882 628.515 259.603 628.515 259.271C628.515 258.989 628.406 258.757 628.189 258.574C627.976 258.391 627.643 258.25 627.192 258.152L625.517 257.8C624.575 257.604 623.879 257.274 623.427 256.81C622.975 256.341 622.751 255.749 622.756 255.033C622.751 254.428 622.915 253.903 623.248 253.46C623.585 253.013 624.051 252.668 624.648 252.425C625.249 252.178 625.941 252.054 626.725 252.054C627.876 252.054 628.781 252.299 629.442 252.789C630.107 253.279 630.518 253.942 630.675 254.777ZM641.021 265.669C639.679 265.669 638.485 265.486 637.441 265.119C636.402 264.757 635.524 264.222 634.808 263.515C634.092 262.812 633.549 261.953 633.178 260.939C632.807 259.925 632.62 258.766 632.615 257.462C632.62 256.188 632.809 255.039 633.184 254.016C633.559 252.989 634.107 252.112 634.827 251.383C635.547 250.65 636.427 250.087 637.467 249.695C638.507 249.303 639.689 249.107 641.015 249.107C642.263 249.107 643.369 249.297 644.332 249.676C645.299 250.055 646.115 250.584 646.78 251.261C647.449 251.935 647.954 252.723 648.295 253.626C648.64 254.526 648.813 255.501 648.813 256.554C648.813 257.283 648.757 257.973 648.647 258.625C648.536 259.273 648.346 259.848 648.078 260.351C647.814 260.854 647.453 261.254 646.998 261.553C646.542 261.847 645.971 262.006 645.284 262.032C644.854 262.053 644.477 262.013 644.153 261.911C643.829 261.808 643.567 261.648 643.367 261.431C643.171 261.21 643.047 260.939 642.996 260.619H642.919C642.821 260.875 642.636 261.109 642.363 261.322C642.095 261.531 641.762 261.695 641.366 261.815C640.97 261.93 640.529 261.977 640.043 261.955C639.523 261.93 639.042 261.81 638.598 261.597C638.159 261.38 637.776 261.077 637.448 260.69C637.124 260.298 636.873 259.825 636.694 259.271C636.515 258.717 636.425 258.088 636.425 257.385C636.425 256.699 636.523 256.094 636.719 255.57C636.915 255.045 637.177 254.598 637.505 254.227C637.838 253.857 638.213 253.567 638.63 253.358C639.048 253.145 639.478 253.009 639.922 252.949C640.382 252.885 640.814 252.891 641.219 252.968C641.624 253.045 641.961 253.162 642.229 253.32C642.502 253.477 642.672 253.65 642.74 253.837H642.83V253.121H644.613V259.207C644.618 259.526 644.694 259.784 644.843 259.98C644.997 260.176 645.21 260.274 645.483 260.274C645.824 260.274 646.098 260.14 646.307 259.871C646.52 259.599 646.674 259.181 646.767 258.619C646.865 258.052 646.912 257.327 646.908 256.445C646.912 255.721 646.816 255.065 646.62 254.477C646.429 253.884 646.156 253.364 645.802 252.917C645.449 252.469 645.025 252.097 644.53 251.798C644.04 251.496 643.495 251.268 642.894 251.114C642.293 250.961 641.652 250.884 640.97 250.884C639.926 250.884 639.007 251.044 638.215 251.364C637.422 251.679 636.757 252.129 636.221 252.712C635.688 253.296 635.285 253.989 635.012 254.79C634.744 255.587 634.61 256.469 634.61 257.436C634.61 258.472 634.75 259.39 635.032 260.191C635.317 260.988 635.735 261.659 636.284 262.205C636.834 262.75 637.514 263.163 638.324 263.445C639.137 263.726 640.073 263.866 641.13 263.866C641.615 263.866 642.091 263.828 642.555 263.751C643.02 263.675 643.437 263.585 643.808 263.483C644.179 263.381 644.464 263.291 644.664 263.214L645.208 264.838C644.944 264.974 644.586 265.107 644.134 265.234C643.686 265.362 643.192 265.467 642.651 265.548C642.114 265.629 641.571 265.669 641.021 265.669ZM640.574 260.121C641.115 260.121 641.547 260.016 641.871 259.808C642.195 259.594 642.427 259.279 642.568 258.862C642.708 258.444 642.777 257.924 642.772 257.302C642.772 256.722 642.7 256.247 642.555 255.876C642.41 255.506 642.178 255.231 641.858 255.052C641.539 254.873 641.115 254.783 640.586 254.783C640.109 254.783 639.702 254.892 639.365 255.109C639.033 255.327 638.777 255.627 638.598 256.011C638.424 256.39 638.336 256.822 638.336 257.308C638.336 257.794 638.407 258.252 638.547 258.683C638.692 259.109 638.926 259.456 639.25 259.724C639.578 259.989 640.02 260.121 640.574 260.121ZM654.42 262.173C653.649 262.173 652.959 261.974 652.349 261.578C651.74 261.182 651.258 260.607 650.905 259.852C650.551 259.098 650.374 258.182 650.374 257.104C650.374 256.013 650.553 255.092 650.911 254.342C651.273 253.588 651.761 253.019 652.375 252.636C652.988 252.248 653.672 252.054 654.427 252.054C655.002 252.054 655.475 252.152 655.846 252.348C656.216 252.54 656.51 252.772 656.728 253.045C656.945 253.313 657.113 253.567 657.233 253.805H657.329V248.909H659.649V262H657.373V260.453H657.233C657.113 260.692 656.941 260.945 656.715 261.214C656.489 261.478 656.191 261.704 655.82 261.891C655.449 262.079 654.983 262.173 654.42 262.173ZM655.066 260.274C655.556 260.274 655.974 260.142 656.319 259.878C656.664 259.609 656.926 259.237 657.105 258.759C657.284 258.282 657.373 257.726 657.373 257.091C657.373 256.456 657.284 255.904 657.105 255.435C656.93 254.967 656.67 254.602 656.325 254.342C655.984 254.082 655.564 253.952 655.066 253.952C654.55 253.952 654.12 254.087 653.775 254.355C653.43 254.624 653.17 254.994 652.995 255.467C652.82 255.94 652.733 256.482 652.733 257.091C652.733 257.705 652.82 258.252 652.995 258.734C653.174 259.211 653.436 259.588 653.781 259.865C654.131 260.138 654.559 260.274 655.066 260.274ZM666.397 262.192C665.417 262.192 664.576 261.977 663.873 261.546C663.174 261.116 662.635 260.521 662.255 259.763C661.88 259 661.693 258.122 661.693 257.129C661.693 256.132 661.885 255.252 662.268 254.489C662.652 253.722 663.193 253.126 663.892 252.7C664.595 252.269 665.426 252.054 666.385 252.054C667.181 252.054 667.887 252.201 668.5 252.495C669.118 252.785 669.61 253.196 669.977 253.729C670.343 254.257 670.552 254.875 670.603 255.582H668.392C668.302 255.109 668.089 254.715 667.752 254.4C667.42 254.08 666.975 253.92 666.417 253.92C665.944 253.92 665.528 254.048 665.17 254.304C664.812 254.555 664.533 254.918 664.333 255.391C664.137 255.864 664.039 256.43 664.039 257.091C664.039 257.76 664.137 258.335 664.333 258.817C664.529 259.294 664.804 259.663 665.157 259.923C665.515 260.178 665.935 260.306 666.417 260.306C666.757 260.306 667.062 260.242 667.331 260.114C667.603 259.982 667.831 259.793 668.015 259.545C668.198 259.298 668.324 258.998 668.392 258.644H670.603C670.548 259.339 670.343 259.955 669.99 260.491C669.636 261.024 669.154 261.442 668.545 261.744C667.936 262.043 667.22 262.192 666.397 262.192ZM680.263 254.777L678.154 255.007C678.094 254.794 677.99 254.594 677.841 254.406C677.696 254.219 677.5 254.067 677.253 253.952C677.006 253.837 676.703 253.78 676.345 253.78C675.863 253.78 675.459 253.884 675.131 254.093C674.807 254.302 674.647 254.572 674.651 254.905C674.647 255.19 674.751 255.423 674.964 255.602C675.182 255.781 675.54 255.928 676.038 256.043L677.713 256.401C678.642 256.601 679.332 256.918 679.784 257.353C680.24 257.788 680.47 258.357 680.474 259.06C680.47 259.678 680.289 260.223 679.931 260.696C679.577 261.165 679.085 261.531 678.454 261.795C677.824 262.06 677.099 262.192 676.281 262.192C675.079 262.192 674.112 261.94 673.379 261.438C672.646 260.93 672.209 260.225 672.069 259.322L674.325 259.104C674.427 259.548 674.645 259.882 674.977 260.108C675.309 260.334 675.742 260.447 676.275 260.447C676.824 260.447 677.265 260.334 677.598 260.108C677.934 259.882 678.103 259.603 678.103 259.271C678.103 258.989 677.994 258.757 677.777 258.574C677.564 258.391 677.231 258.25 676.78 258.152L675.105 257.8C674.163 257.604 673.466 257.274 673.015 256.81C672.563 256.341 672.339 255.749 672.344 255.033C672.339 254.428 672.503 253.903 672.836 253.46C673.172 253.013 673.639 252.668 674.236 252.425C674.836 252.178 675.529 252.054 676.313 252.054C677.464 252.054 678.369 252.299 679.03 252.789C679.694 253.279 680.106 253.942 680.263 254.777ZM683.808 262.141C683.42 262.141 683.088 262.004 682.811 261.732C682.534 261.459 682.397 261.126 682.401 260.734C682.397 260.351 682.534 260.023 682.811 259.75C683.088 259.477 683.42 259.341 683.808 259.341C684.183 259.341 684.509 259.477 684.786 259.75C685.067 260.023 685.21 260.351 685.214 260.734C685.21 260.994 685.142 261.231 685.009 261.444C684.882 261.657 684.711 261.827 684.498 261.955C684.289 262.079 684.059 262.141 683.808 262.141ZM691.886 262.192C690.927 262.192 690.096 261.981 689.393 261.559C688.69 261.137 688.144 260.547 687.756 259.788C687.373 259.03 687.181 258.143 687.181 257.129C687.181 256.115 687.373 255.227 687.756 254.464C688.144 253.701 688.69 253.109 689.393 252.687C690.096 252.265 690.927 252.054 691.886 252.054C692.844 252.054 693.675 252.265 694.379 252.687C695.082 253.109 695.625 253.701 696.009 254.464C696.396 255.227 696.59 256.115 696.59 257.129C696.59 258.143 696.396 259.03 696.009 259.788C695.625 260.547 695.082 261.137 694.379 261.559C693.675 261.981 692.844 262.192 691.886 262.192ZM691.898 260.338C692.418 260.338 692.853 260.195 693.202 259.91C693.552 259.62 693.812 259.232 693.982 258.746C694.157 258.261 694.244 257.719 694.244 257.123C694.244 256.522 694.157 255.979 693.982 255.493C693.812 255.003 693.552 254.613 693.202 254.323C692.853 254.033 692.418 253.888 691.898 253.888C691.366 253.888 690.923 254.033 690.569 254.323C690.219 254.613 689.957 255.003 689.783 255.493C689.612 255.979 689.527 256.522 689.527 257.123C689.527 257.719 689.612 258.261 689.783 258.746C689.957 259.232 690.219 259.62 690.569 259.91C690.923 260.195 691.366 260.338 691.898 260.338ZM698.554 262V252.182H700.798V253.818H700.9C701.079 253.251 701.386 252.815 701.82 252.508C702.259 252.197 702.76 252.041 703.323 252.041C703.45 252.041 703.593 252.048 703.751 252.06C703.913 252.069 704.047 252.084 704.154 252.105V254.234C704.056 254.2 703.9 254.17 703.687 254.144C703.478 254.114 703.276 254.099 703.08 254.099C702.658 254.099 702.279 254.191 701.942 254.374C701.61 254.553 701.347 254.803 701.156 255.122C700.964 255.442 700.868 255.81 700.868 256.228V262H698.554ZM705.991 262.141C705.604 262.141 705.271 262.004 704.994 261.732C704.717 261.459 704.581 261.126 704.585 260.734C704.581 260.351 704.717 260.023 704.994 259.75C705.271 259.477 705.604 259.341 705.991 259.341C706.366 259.341 706.692 259.477 706.969 259.75C707.251 260.023 707.393 260.351 707.398 260.734C707.393 260.994 707.325 261.231 707.193 261.444C707.065 261.657 706.895 261.827 706.682 261.955C706.473 262.079 706.243 262.141 705.991 262.141ZM711.896 258.919L711.89 256.126H712.26L715.789 252.182H718.493L714.152 257.014H713.673L711.896 258.919ZM709.787 262V248.909H712.1V262H709.787ZM715.949 262L712.752 257.532L714.312 255.902L718.716 262H715.949ZM720.035 262V252.182H722.278V253.818H722.381C722.559 253.251 722.866 252.815 723.301 252.508C723.74 252.197 724.241 252.041 724.803 252.041C724.931 252.041 725.074 252.048 725.231 252.06C725.393 252.069 725.528 252.084 725.634 252.105V254.234C725.536 254.2 725.381 254.17 725.167 254.144C724.959 254.114 724.756 254.099 724.56 254.099C724.138 254.099 723.759 254.191 723.422 254.374C723.09 254.553 722.828 254.803 722.636 255.122C722.444 255.442 722.349 255.81 722.349 256.228V262H720.035Z" fill="white"/>
<path d="M135.72 259.16H150.804V261.068H135.72V259.16ZM142.254 260.366H144.666V263.876H142.254V260.366ZM137.574 251.636H148.896V257.828H137.574V251.636ZM146.538 253.508H139.914V255.956H146.538V253.508ZM137.466 265.406H149.148V267.314H137.466V265.406ZM137.466 262.472H139.842V266.036H137.466V262.472ZM157.643 252.032C160.271 252.032 162.233 253.742 162.233 256.136C162.233 258.548 160.271 260.258 157.643 260.258C155.033 260.258 153.035 258.548 153.035 256.136C153.035 253.742 155.033 252.032 157.643 252.032ZM157.643 254.084C156.365 254.084 155.393 254.84 155.393 256.136C155.393 257.45 156.365 258.206 157.643 258.206C158.921 258.206 159.893 257.45 159.893 256.136C159.893 254.84 158.921 254.084 157.643 254.084ZM163.799 250.916H166.193V267.638H163.799V250.916ZM152.639 264.254L152.351 262.328C155.285 262.328 159.371 262.292 162.881 261.77L163.061 263.498C159.443 264.218 155.519 264.254 152.639 264.254Z" fill="white"/>
<path d="M541.188 252.644H547.776V263.444H541.188V252.644ZM545.544 254.516H543.42V261.572H545.544V254.516ZM552.762 250.934H555.048V267.602H552.762V250.934ZM546.57 256.982H550.314V258.908H546.57V256.982ZM549.36 251.186H551.61V266.846H549.36V251.186ZM561.977 251.42C564.515 251.42 566.423 253.004 566.423 255.236C566.423 257.45 564.515 259.034 561.977 259.034C559.439 259.034 557.531 257.45 557.531 255.236C557.531 253.004 559.439 251.42 561.977 251.42ZM561.977 253.364C560.753 253.364 559.835 254.048 559.835 255.236C559.835 256.424 560.753 257.108 561.977 257.108C563.201 257.108 564.101 256.424 564.101 255.236C564.101 254.048 563.201 253.364 561.977 253.364ZM568.727 250.934H571.139V259.268H568.727V250.934ZM560.015 259.952H571.139V264.524H562.391V266.54H560.051V262.796H568.763V261.806H560.015V259.952ZM560.051 265.568H571.553V267.422H560.051V265.568Z" fill="white"/>
<defs>
<linearGradient id="paint0_linear_718_192" x1="797.754" y1="-32.9339" x2="770.924" y2="458.603" gradientUnits="userSpaceOnUse">
<stop stop-opacity="0"/>
<stop offset="1" stop-color="#25F4EE"/>
</linearGradient>
</defs>
</svg>
